<svg width="1053" height="376" viewBox="0 0 1053 376" fill="none" xmlns="http://www.w3.org/2000/svg">
<path d="M883.122 93.83H981.132V0C955.141 -3.02939e-07 930.214 9.88516 911.834 27.4813C893.454 45.0774 883.126 68.9434 883.122 93.83V93.83ZM981.132 0H883.122V93.83H981.132V0ZM1079 187.675H1177V93.83C1151.01 93.8338 1126.08 103.723 1107.71 121.322C1089.33 138.92 1079 162.788 1079 187.675V187.675ZM1177 93.83H1079V187.675H1177V93.83ZM1079 187.675H1177V281.519C1151.01 281.515 1126.08 271.626 1107.71 254.028C1089.33 236.429 1079 212.561 1079 187.675V187.675ZM1177 281.519H1079V187.675H1177V281.519ZM981.179 375.349H883.168V281.519C896.038 281.517 908.783 283.943 920.674 288.657C932.565 293.372 943.369 300.283 952.471 308.996C961.572 317.709 968.792 328.054 973.718 339.439C978.643 350.823 981.179 363.026 981.179 375.349V375.349ZM883.168 281.519H981.179V375.349H883.168V281.519ZM785.082 93.83H883.077V0C857.087 0 832.161 9.88563 813.784 27.4822C795.406 45.0787 785.082 68.9447 785.082 93.83V93.83ZM883.077 0H785.082V93.83H883.077V0ZM883.077 187.675H785.082V93.83C811.073 93.8338 835.998 103.723 854.376 121.322C872.753 138.92 883.077 162.788 883.077 187.675V187.675ZM785.082 93.83H883.077V187.675H785.082V93.83ZM883.077 187.675H785.082V281.519C811.073 281.515 835.998 271.626 854.376 254.028C872.753 236.429 883.077 212.561 883.077 187.675ZM785.082 281.519H883.077V187.675H785.082V281.519ZM785.082 469.194H883.077V375.349C870.207 375.349 857.462 377.777 845.572 382.493C833.682 387.209 822.878 394.122 813.779 402.836C804.679 411.551 797.461 421.896 792.537 433.282C787.613 444.668 785.08 456.87 785.082 469.194ZM883.077 375.349H785.082V469.194H883.077V375.349ZM883.077 375.349H785.082V281.519C811.072 281.519 835.997 291.405 854.374 309.001C872.752 326.598 883.077 350.464 883.077 375.349ZM785.082 281.519H883.077V375.349H785.082V281.519ZM883.077 563.024H785.082V469.194C811.072 469.194 835.997 479.079 854.374 496.676C872.752 514.272 883.077 538.138 883.077 563.024ZM785.082 469.194H883.077V563.024H785.082V469.194ZM883.077 563.024V656.868H785.082C785.082 631.982 795.406 608.114 813.783 590.515C832.16 572.916 857.086 563.028 883.077 563.024V563.024ZM883.077 656.868H785.082V563.024H883.077V656.868ZM785.082 469.194H687.071V375.349C713.065 375.349 737.995 385.236 756.375 402.836C774.756 420.435 785.082 444.305 785.082 469.194V469.194ZM687.071 375.349H785.082V469.194H687.071V375.349ZM687.071 187.675H785.082V281.519C759.088 281.519 734.158 271.632 715.778 254.033C697.397 236.433 687.071 212.564 687.071 187.675V187.675ZM785.082 281.519H687.071V187.675H785.082V281.519ZM687.071 375.349H785.082V281.519C772.212 281.517 759.467 283.943 747.576 288.657C735.685 293.372 724.88 300.283 715.779 308.996C706.678 317.709 699.458 328.054 694.532 339.439C689.607 350.823 687.071 363.026 687.071 375.349V375.349ZM785.082 281.519H687.071V375.349H785.082V281.519ZM687.071 563.024V375.349H491.021C491.021 425.123 511.671 472.859 548.429 508.055C585.187 543.251 635.042 563.024 687.026 563.024H687.071ZM687.026 375.349H491.021V563.024H687.026V375.349ZM883.122 93.6542H1079.14V281.343C1053.4 281.343 1027.91 276.489 1004.13 267.056C980.346 257.624 958.738 243.799 940.535 226.371C922.333 208.942 907.895 188.251 898.044 165.48C888.193 142.708 883.122 118.302 883.122 93.6542V93.6542ZM1079.14 281.343H883.122V93.6542H1079.14V281.343ZM785.036 0H589.031V187.675C641.013 187.671 690.865 167.897 727.623 132.702C764.38 97.5067 785.032 49.7732 785.036 0V0ZM589.031 187.675H785.036V0H589.031V187.675ZM687.026 469.194V563.024H785.036C785.032 538.137 774.704 514.271 756.324 496.675C737.944 479.079 713.017 469.194 687.026 469.194V469.194ZM687.026 563.024H785.036V469.194H687.026V563.024ZM687.026 563.024H785.036V656.868C772.164 656.87 759.418 654.444 747.526 649.729C735.634 645.013 724.829 638.101 715.728 629.386C706.626 620.671 699.407 610.325 694.482 598.939C689.557 587.552 687.024 575.348 687.026 563.024V563.024ZM785.036 656.868H687.026V563.024H785.036V656.868ZM491.021 563.024H392.964V469.194C405.835 469.192 418.579 471.617 430.47 476.332C442.361 481.046 453.166 487.958 462.267 496.671C471.368 505.384 478.588 515.728 483.514 527.113C488.44 538.498 490.974 550.7 490.974 563.024H491.021ZM392.964 469.194H490.974V563.024H392.964V469.194ZM392.964 375.349H490.974V469.194C464.982 469.19 440.055 459.301 421.675 441.703C403.296 424.105 392.968 400.237 392.964 375.349ZM490.974 469.194H392.964V375.349H490.974V469.194ZM392.964 375.349V281.519H490.974C490.974 293.842 488.44 306.045 483.514 317.43C478.588 328.815 471.368 339.159 462.267 347.872C453.166 356.585 442.361 363.496 430.47 368.211C418.579 372.925 405.835 375.351 392.964 375.349V375.349ZM392.964 281.519H490.974V375.349H392.964V281.519ZM392.964 187.675H490.974V281.519C464.982 281.515 440.055 271.627 421.675 254.028C403.296 236.43 392.968 212.562 392.964 187.675V187.675ZM490.974 281.519H392.964V187.675H490.974V281.519ZM686.979 563.024H588.985V656.868C601.855 656.868 614.599 654.441 626.489 649.724C638.38 645.008 649.183 638.095 658.283 629.381C667.383 620.666 674.601 610.321 679.525 598.935C684.449 587.55 686.981 575.347 686.979 563.024V563.024ZM588.985 656.868H686.979V563.024H588.985V656.868ZM490.974 656.868H588.985V563.024C562.991 563.024 538.061 572.911 519.681 590.51C501.3 608.109 490.974 631.979 490.974 656.868ZM588.985 563.024H490.974V656.868H588.985V563.024ZM588.985 281.519H490.974V187.675C516.968 187.675 541.898 197.562 560.279 215.161C578.659 232.76 588.985 256.63 588.985 281.519V281.519ZM490.974 187.675H588.969V281.519H490.974V187.675ZM686.979 187.675H588.985V281.519C614.976 281.515 639.902 271.626 658.279 254.028C676.656 236.429 686.979 212.561 686.979 187.675ZM588.985 281.519H686.979V187.675H588.985V281.519ZM588.985 375.349H490.974V281.519C516.966 281.519 541.893 291.404 560.273 309C578.653 326.596 588.981 350.462 588.985 375.349ZM490.974 281.519H588.969V375.349H490.974V281.519ZM686.979 281.519H588.985V375.349C614.975 375.349 639.9 365.463 658.277 347.867C676.655 330.27 686.979 306.404 686.979 281.519V281.519ZM588.985 375.349H686.979V281.519H588.985V375.349ZM588.985 93.83H490.974V187.675C516.968 187.675 541.898 177.787 560.279 160.188C578.659 142.589 588.985 118.719 588.985 93.83V93.83ZM490.974 187.675H588.969V93.83H490.974V187.675ZM392.964 187.675H490.974V93.83C464.982 93.8338 440.055 103.722 421.675 121.321C403.296 138.919 392.968 162.787 392.964 187.675ZM490.974 93.83H392.964V187.675H490.974V93.83ZM490.974 0H588.985V93.83C576.115 93.8319 563.37 91.4063 551.479 86.6918C539.588 81.9772 528.784 75.0661 519.682 66.353C510.581 57.6399 503.361 47.2955 498.435 35.9106C493.51 24.5256 490.974 12.3232 490.974 0V0ZM588.985 93.83H490.974V0H588.985V93.83ZM392.964 93.83H490.974V0C464.983 -3.02939e-07 440.056 9.88516 421.676 27.4813C403.296 45.0774 392.968 68.9434 392.964 93.83V93.83ZM490.974 0H392.964V93.83H490.974V0ZM392.964 656.868H490.974V563.024C464.982 563.028 440.055 572.916 421.675 590.514C403.296 608.113 392.968 631.98 392.964 656.868ZM490.974 563.024H392.964V656.868H490.974V563.024ZM1 187.675H98.995V281.519C73.0037 281.515 48.0784 271.626 29.7012 254.028C11.3241 236.429 1 212.561 1 187.675V187.675ZM98.995 281.519H1V187.675H98.995V281.519ZM1176.86 375.437V657H882.863C882.863 501.525 1014.49 375.481 1176.86 375.481V375.437ZM1176.86 657H882.863V375.437H1176.86V657ZM98.995 93.83V375.349H392.964C392.964 219.874 261.326 93.83 98.9495 93.83H98.995ZM98.9495 375.349H392.964V93.83H98.995L98.9495 375.349ZM196.959 656.868H1V469.194C52.9838 469.194 102.838 488.966 139.597 524.162C176.355 559.358 197.005 607.094 197.005 656.868H196.959ZM1 469.194H197.005V656.868H1V469.194ZM197.005 375.349H98.995V469.194C124.989 469.194 149.918 459.307 168.299 441.707C186.679 424.108 197.005 400.238 197.005 375.349V375.349ZM98.995 469.194H197.005V375.349H98.995V469.194ZM98.995 469.194H1V375.349C13.8702 375.349 26.6146 377.777 38.5049 382.493C50.3952 387.209 61.1984 394.122 70.2983 402.836C79.3981 411.551 86.6161 421.896 91.5399 433.282C96.4637 444.668 98.997 456.87 98.995 469.194ZM1 375.349H98.995V469.194H1V375.349ZM98.995 281.519H1V375.349C26.9899 375.349 51.9154 365.463 70.293 347.867C88.6707 330.27 98.995 306.404 98.995 281.519V281.519ZM1 375.349H98.995V281.519H1V375.349ZM98.995 93.83H1V187.675C13.8702 187.675 26.6146 185.247 38.5049 180.531C50.3952 175.814 61.1984 168.902 70.2983 160.187C79.3981 151.473 86.6161 141.127 91.5399 129.742C96.4637 118.356 98.997 106.153 98.995 93.83ZM1 187.675H98.995V93.83H1V187.675ZM98.995 93.83H1V0C26.9899 0 51.9154 9.88563 70.293 27.4822C88.6707 45.0787 98.995 68.9447 98.995 93.83ZM1 0H98.995V93.83H1V0ZM197.005 0H98.995V93.83C111.865 93.8319 124.61 91.4063 136.501 86.6918C148.392 81.9772 159.196 75.0661 168.298 66.353C177.399 57.6399 184.619 47.2955 189.545 35.9106C194.47 24.5256 197.005 12.3232 197.005 0V0ZM98.995 93.83H197.005V0H98.995V93.83ZM295.092 375.349H197.082V469.194C223.075 469.19 248.001 459.301 266.381 441.703C284.76 424.105 295.088 400.237 295.092 375.349ZM197.082 469.194H295.092V375.349H197.082V469.194ZM393.087 469.194H295.092V375.349C321.063 375.38 345.959 385.281 364.311 402.878C382.663 420.474 392.968 444.326 392.964 469.194H393.087ZM295.092 375.349H392.964V469.194H295.092V375.349ZM295.092 469.194H197.082V563.024C223.073 563.024 248 553.138 266.38 535.542C284.76 517.946 295.088 494.08 295.092 469.194V469.194ZM197.082 563.024H295.092V469.194H197.082V563.024ZM392.964 469.194H295.092V563.024C321.06 562.993 345.955 553.093 364.306 535.5C382.657 517.907 392.964 494.059 392.964 469.194ZM295.092 563.024H392.964V469.194H295.092V563.024ZM295.092 656.868H197.082V563.024C223.075 563.028 248.001 572.916 266.381 590.514C284.76 608.113 295.088 631.98 295.092 656.868ZM197.082 563.024H295.092V656.868H197.082V563.024ZM393.087 563.024H295.092V656.868C321.063 656.837 345.959 646.936 364.311 629.34C382.663 611.743 392.968 587.891 392.964 563.024H393.087ZM295.092 656.868H392.964V563.024H295.092V656.868ZM1078.94 375.437H980.934V281.592C1006.93 281.596 1031.85 291.485 1050.23 309.083C1068.61 326.681 1078.94 350.549 1078.94 375.437V375.437ZM980.934 281.592H1078.94V375.437H980.934V281.592ZM1176.94 281.592H1078.94V375.437C1091.81 375.437 1104.56 373.009 1116.45 368.293C1128.34 363.577 1139.14 356.664 1148.24 347.95C1157.34 339.235 1164.56 328.89 1169.48 317.504C1174.41 306.118 1176.94 293.915 1176.94 281.592V281.592ZM1078.94 375.437H1176.94V281.592H1078.94V375.437ZM1078.94 93.83H980.934V0C1006.93 -3.02939e-07 1031.85 9.88516 1050.23 27.4813C1068.61 45.0774 1078.94 68.9434 1078.94 93.83V93.83ZM980.934 0H1078.94V93.83H980.934V0ZM1176.94 0H1078.94V93.83C1104.93 93.83 1129.86 83.9443 1148.24 66.3478C1166.61 48.7513 1176.94 24.8853 1176.94 0ZM1078.94 93.83H1176.94V0H1078.94V93.83ZM295.092 93.83H197.082V0C223.073 -3.02939e-07 248 9.88516 266.38 27.4813C284.76 45.0774 295.088 68.9434 295.092 93.83ZM197.082 0H295.092V93.83H197.082V0ZM393.087 0H295.092V93.83C321.06 93.7989 345.955 83.8996 364.306 66.3064C382.657 48.7132 392.964 24.865 392.964 0H393.087ZM295.092 93.83H392.964V0H295.092V93.83Z" stroke="#DEA39C" stroke-opacity="0.5" stroke-width="0.92" stroke-miterlimit="10"/>
</svg>
