<svg width="165" height="18" viewBox="0 0 165 18" fill="none" xmlns="http://www.w3.org/2000/svg">
<path d="M70.8143 0.413574H74.5129L82.5655 17.0027H79.14L77.4312 13.1948H67.8491L66.0934 17.0027H62.6445L70.8143 0.413574ZM76.1281 10.4482L72.6636 3.05096L69.1912 10.4482H76.1281Z" fill="#353A42"/>
<path d="M84.3633 0.413574H92.3535C97.5971 0.413574 101.803 2.62962 101.803 8.60669C101.803 14.2638 97.9638 17.0027 92.4861 17.0027H84.3633V0.413574ZM90.8944 14.217C96.4111 14.217 98.5569 12.5316 98.5569 8.6535C98.5569 4.58816 96.3252 3.19143 90.8944 3.19143H87.6093V14.2092L90.8944 14.217Z" fill="#353A42"/>
<path d="M39.1921 11.1114C38.8644 12.3911 37.1945 14.6306 33.4257 14.6306C29.8598 14.6306 27.1053 12.6252 27.1053 8.80956C27.1053 5.36845 29.0171 2.78566 33.6052 2.78566C37.5067 2.78566 38.7629 5.12657 38.9424 5.70399L42.0636 5.29822C41.6188 3.83907 40.0348 0 33.4179 0C26.801 0 23.7891 3.60498 23.7891 8.44282C23.7891 14.4901 27.9168 17.4162 33.1526 17.4162C40.2377 17.4162 41.8764 13.5616 42.3367 11.525L39.1921 11.1114Z" fill="#353A42"/>
<path d="M59.4773 11.1114C59.1417 12.3911 57.4797 14.6306 53.7109 14.6306C50.1449 14.6306 47.3827 12.6252 47.3827 8.80956C47.3827 5.36845 49.3022 2.78566 53.8904 2.78566C57.7918 2.78566 59.0481 5.12657 59.2276 5.70399L62.3488 5.29822C61.9118 3.83907 60.3278 0 53.7109 0C47.0939 0 44.0742 3.60498 44.0742 8.44282C44.0742 14.4901 48.2098 17.4162 53.4378 17.4162C60.5229 17.4162 62.1615 13.5616 62.6219 11.525L59.4773 11.1114Z" fill="#353A42"/>
<path d="M130.258 14.1312V0.413574H127.02V17.0027H142.29V14.1312H130.258Z" fill="#353A42"/>
<path d="M144.474 17.0027H147.72V10.3624L155.82 0.413574H151.825L146.097 7.44403L140.347 0.413574H136.375L144.474 10.3624V17.0027Z" fill="#353A42"/>
<path d="M9.24652 0.413574H0V17.0027H3.23823V10.5652H9.24652C12.0478 10.5652 16.6593 10.5652 16.6593 5.5011C16.6593 0.436975 12.0478 0.413574 9.24652 0.413574ZM9.94881 7.78736H3.23823V3.19922H9.94881C11.7981 3.19922 13.4211 3.35528 13.4211 5.47769C13.4211 7.6001 11.7981 7.81858 9.94881 7.81858" fill="#353A42"/>
<path d="M21.7734 0.421387H18.5352V17.0105H21.7734V0.421387Z" fill="#353A42"/>
<path d="M106.953 0.413574H103.715V17.0027H106.953V0.413574Z" fill="#353A42"/>
<path d="M112.727 14.1312V0.413574H109.488V17.0027H124.751V14.1312H112.727Z" fill="#353A42"/>
<path d="M165 0.421387H158.625V6.79642H165V0.421387ZM164.22 3.74546C163.682 2.64739 162.796 1.75837 161.699 1.2173H164.22V3.74546ZM159.444 1.45919C160.498 1.49738 161.509 1.88745 162.316 2.5672L159.444 5.4309V1.45919ZM162.878 3.12902C163.557 3.93501 163.945 4.94677 163.978 6.0005H160.014L162.878 3.12902Z" fill="#353A42"/>
</svg>
