<?xml version="1.0" standalone="no"?>
<!DOCTYPE svg PUBLIC "-//W3C//DTD SVG 20010904//EN"
 "http://www.w3.org/TR/2001/REC-SVG-20010904/DTD/svg10.dtd">
<svg version="1.0" xmlns="http://www.w3.org/2000/svg"
 width="481.000000pt" height="88.000000pt" viewBox="0 0 481.000000 88.000000"
 preserveAspectRatio="xMidYMid meet">

<g transform="translate(0.000000,88.000000) scale(0.100000,-0.100000)"
fill="#000000" stroke="none">
<path d="M3555 765 l-25 -24 0 -236 c0 -150 4 -235 10 -235 6 0 10 83 10 230
0 217 1 231 20 250 19 19 33 20 415 20 382 0 396 -1 415 -20 19 -19 20 -33 20
-250 0 -147 4 -230 10 -230 6 0 10 85 10 235 l0 236 -25 24 -24 25 -406 0
-406 0 -24 -25z"/>
<path d="M234 653 c4 -10 41 -108 81 -218 40 -110 77 -208 80 -218 6 -14 17
-17 47 -15 l40 3 79 215 c44 118 82 223 85 233 4 14 -1 17 -34 17 l-40 0 -63
-184 c-35 -102 -66 -183 -68 -181 -2 3 -32 84 -66 182 l-62 178 -43 3 c-38 3
-42 1 -36 -15z"/>
<path d="M785 483 c-37 -104 -76 -210 -87 -236 l-18 -48 41 3 c40 3 43 5 62
56 l20 52 97 0 97 0 20 -52 c19 -51 22 -53 62 -56 l41 -3 -19 48 c-10 26 -49
132 -86 236 l-68 187 -47 0 -47 0 -68 -187z m157 -8 l37 -105 -79 0 -79 0 37
105 c20 58 39 105 42 105 3 0 22 -47 42 -105z"/>
<path d="M1200 435 l0 -235 35 0 35 0 2 179 3 180 114 -180 114 -179 44 0 43
0 0 235 0 235 -40 0 -40 0 -2 -172 -3 -173 -110 172 -110 172 -42 1 -43 0 0
-235z"/>
<path d="M1720 435 l0 -235 40 0 40 0 0 90 0 90 79 0 c72 0 83 3 112 27 34 29
59 78 59 115 0 12 -10 42 -21 66 -32 64 -75 81 -206 82 l-103 0 0 -235z m227
143 c16 -15 23 -33 23 -58 0 -54 -26 -73 -106 -78 l-64 -4 0 81 0 81 62 0 c50
0 66 -4 85 -22z"/>
<path d="M2140 435 l0 -235 35 0 35 0 0 235 0 235 -35 0 -35 0 0 -235z"/>
<path d="M2460 659 c-151 -61 -191 -298 -68 -404 54 -45 95 -58 178 -53 57 3
77 9 112 33 23 17 50 44 60 62 l19 31 -36 12 c-33 11 -37 10 -56 -14 -64 -81
-186 -73 -252 16 -16 21 -21 43 -21 92 0 55 4 69 28 101 65 85 196 86 251 1
15 -23 18 -24 48 -11 35 15 36 24 5 68 -31 44 -110 77 -183 76 -33 0 -71 -5
-85 -10z"/>
<path d="M2850 435 l0 -235 40 0 40 0 0 105 c0 138 10 138 114 0 l79 -105 49
0 49 0 -94 123 -95 123 70 84 c38 47 78 97 89 113 l20 27 -45 0 c-45 0 -46 0
-122 -95 -48 -60 -83 -95 -95 -95 -17 0 -19 8 -19 95 l0 95 -40 0 -40 0 0
-235z"/>
<path d="M3780 661 c0 -5 10 -11 22 -13 17 -2 27 -20 53 -98 l32 -95 105 -3
106 -3 23 68 c12 37 24 74 27 81 3 9 -26 12 -127 12 -81 0 -131 -4 -131 -10 0
-6 45 -10 116 -10 130 0 120 9 89 -80 l-12 -35 -89 -3 -90 -3 -32 101 c-32 97
-34 100 -63 100 -16 0 -29 -4 -29 -9z"/>
<path d="M3876 384 c-25 -24 -18 -55 14 -66 43 -15 70 50 31 72 -25 13 -27 13
-45 -6z m44 -30 c0 -14 -21 -19 -33 -7 -9 9 13 34 24 27 5 -3 9 -12 9 -20z"/>
<path d="M4056 387 c-29 -21 -17 -61 18 -65 43 -5 61 32 30 62 -19 19 -25 20
-48 3z m42 -29 c-7 -19 -38 -22 -38 -4 0 10 9 16 21 16 12 0 19 -5 17 -12z"/>
<path d="M3450 220 c0 -28 31 -80 62 -104 l35 -26 441 0 440 0 33 27 c29 25
59 77 59 103 0 6 -75 10 -219 10 -185 0 -220 -2 -225 -15 -4 -12 -24 -15 -90
-15 -65 0 -85 3 -90 15 -4 13 -39 15 -226 15 -144 0 -220 -4 -220 -10z m434
-25 c8 -22 194 -22 202 0 5 13 37 15 205 15 223 0 225 -1 165 -64 l-33 -36
-427 0 c-462 0 -464 0 -500 54 -9 14 -16 30 -16 36 0 6 68 10 199 10 168 0
200 -2 205 -15z"/>
</g>
</svg>
